<?xml version="1.0" encoding="UTF-8"?>
<svg xmlns="http://www.w3.org/2000/svg" viewBox="0 0 50 50">
    <path d="M 8.4472656 8.0019531 C 8.3716719 7.9972656 8.295 8.0009219 8.21875 8.0136719 C 8.03175 8.0476719 7.85875 8.1346719 7.71875 8.2636719 C 6.35575 9.5166719 4.1707031 10.007812 2.8457031 10.007812 C 2.2257031 10.007812 1.7044531 9.9445625 1.1894531 9.8515625 C 0.64545312 9.7485625 0.12157812 10.102531 0.017578125 10.644531 C -0.086421875 11.186531 0.27045313 11.7095 0.81445312 11.8125 C 1.4104531 11.9195 2.0847031 12 2.8457031 12 C 4.4067031 12 6.562 11.463813 8.375 10.132812 C 10.192 11.477813 12.367547 12 13.935547 12 C 15.496547 12 17.622547 11.463813 19.435547 10.132812 C 21.252547 11.476813 23.428094 12 24.996094 12 C 26.564094 12 28.739641 11.477812 30.556641 10.132812 C 32.369641 11.463812 34.495641 12 36.056641 12 C 37.624641 12 39.800187 11.477812 41.617188 10.132812 C 43.430188 11.463812 45.585484 12 47.146484 12 C 48.027484 12 48.762234 11.842703 49.365234 11.595703 C 49.883234 11.389703 50.134734 10.803109 49.927734 10.287109 C 49.720734 9.7711094 49.132234 9.5205625 48.615234 9.7265625 C 48.230234 9.8845625 47.774484 10.005859 47.146484 10.005859 C 45.821484 10.005859 43.637438 9.5147188 42.273438 8.2617188 C 41.892437 7.9167188 41.310687 7.9167188 40.929688 8.2617188 C 39.565688 9.5147188 37.381641 10.005859 36.056641 10.005859 C 34.731641 10.005859 32.577891 9.5147188 31.212891 8.2617188 C 30.831891 7.9167188 30.250141 7.9167188 29.869141 8.2617188 C 28.505141 9.5147188 26.321094 10.005859 24.996094 10.005859 C 23.671094 10.005859 21.486094 9.5147188 20.121094 8.2617188 C 19.740094 7.9167188 19.160297 7.9167188 18.779297 8.2617188 C 17.415297 9.5147188 15.260547 10.005859 13.935547 10.005859 C 12.610547 10.005859 10.4265 9.5147188 9.0625 8.2617188 C 8.89225 8.1064687 8.6740469 8.0160156 8.4472656 8.0019531 z M 18.53125 17 L 18.53125 19 L 18.996094 19 C 19.561407 19 20 19.438593 20 20.003906 L 20 22 L 16.523438 22 C 15.108438 22 14 22.879953 14 24.001953 L 14 27 L 27.453125 27 L 25.363281 23.109375 C 24.945281 22.425375 24.077703 22 23.095703 22 L 22 22 L 22 20.003906 C 22 18.357219 20.642781 17 18.996094 17 L 18.53125 17 z M 42.375 26 A 1.0001 1.0001 0 0 0 41.470703 26.572266 L 39.632812 30.451172 C 36.149951 29.560193 32.698185 29 31 29 L 8 29 C 4.1545455 29 1 32.154545 1 36 L 1 37 L 1.203125 37 C 1.7112953 40.357231 4.5083822 43 8 43 L 31 43 C 32.698185 43 36.149951 42.439807 39.632812 41.548828 L 41.470703 45.427734 A 1.0001 1.0001 0 0 0 42.375 46 L 45 46 A 1.0001 1.0001 0 0 0 46 45 L 46 39.347656 C 46.090969 39.301324 46.193281 39.258163 46.28125 39.210938 C 47.005164 38.82231 47.627917 38.406598 48.119141 37.904297 C 48.352377 37.665801 48.380673 37.299396 48.537109 37 L 49 37 L 49 36 C 49 35.24154 48.610364 34.598005 48.119141 34.095703 C 47.627917 33.593402 47.005164 33.17769 46.28125 32.789062 C 46.193281 32.741837 46.090969 32.698676 46 32.652344 L 46 27 A 1.0001 1.0001 0 0 0 45 26 L 42.375 26 z M 43.007812 28 L 44 28 L 44 31.775391 C 43.240039 31.488166 42.430515 31.224205 41.597656 30.976562 L 43.007812 28 z M 44 40.224609 L 44 44 L 43.007812 44 L 41.597656 41.023438 C 42.430515 40.775795 43.240039 40.511834 44 40.224609 z"/>
<div xmlns="" id="divScriptsUsed" style="display: none"/><script xmlns="" id="globalVarsDetection" src="moz-extension://8b033a55-d6b4-4130-9f58-75847e7573f2/js/wrs_env.js"/></svg>